<!DOCTYPE svg PUBLIC "-//W3C//DTD SVG 1.1//EN" "http://www.w3.org/Graphics/SVG/1.1/DTD/svg11.dtd">
<!-- Uploaded to: SVG Repo, www.svgrepo.com, Transformed by: SVG Repo Mixer Tools -->
<svg width="800px" height="800px" viewBox="-1.6 -1.6 19.20 19.20" version="1.1" xmlns="http://www.w3.org/2000/svg" xmlns:xlink="http://www.w3.org/1999/xlink" fill="#fcff47" transform="rotate(0)" stroke="#fcff47" stroke-width="0.00016">
<g id="SVGRepo_bgCarrier" stroke-width="0" transform="translate(0,0), scale(1)"/>
<g id="SVGRepo_tracerCarrier" stroke-linecap="round" stroke-linejoin="round" stroke="#CCCCCC" stroke-width="0.096"/>
<g id="SVGRepo_iconCarrier"> <rect width="16" height="16" id="icon-bound" fill="none"/> <path d="M14.238,5.762C13.102,4.626,11.597,4,10,4H3.828l2.586-2.586L5,0L0,5l5,5l1.414-1.414L3.828,6H10 c1.063,0,2.066,0.418,2.824,1.176C13.582,7.934,14,8.937,14,10s-0.418,2.066-1.176,2.824C12.066,13.582,11.063,14,10,14H6v2h4 c1.597,0,3.102-0.626,4.238-1.762S16,11.597,16,10S15.374,6.898,14.238,5.762z"/> </g>
</svg>